<?xml version="1.0" encoding="utf-8"?>
<!-- Generator: Adobe Illustrator 25.2.3, SVG Export Plug-In . SVG Version: 6.00 Build 0)  -->
<svg version="1.1" id="Layer_1" xmlns="http://www.w3.org/2000/svg" xmlns:xlink="http://www.w3.org/1999/xlink" x="0px" y="0px"
	 viewBox="0 0 300 75.7" style="enable-background:new 0 0 300 75.7;" xml:space="preserve">
<style type="text/css">
	.st0{fill:none;stroke:#999999;stroke-miterlimit:10;}
	.st1{fill:#05164D;}
	.st2{fill:url(#SVGID_1_);}
	.st3{fill:#A5BAC9;}
	.st4{fill:#002171;}
	.st5{fill:#E60000;}
	.st6{fill:#FFFFFF;}
</style>
<g>
	<line class="st0" x1="233.1" y1="0" x2="233.1" y2="75.7"/>
	<g>
		<path class="st1" d="M92.1,36.8c-1.3-0.6-2.3-1.4-3-2.5s-1.1-2.5-1.1-4c0-0.8,0.1-1.5,0.3-2.3c0.6-3.1,2-5.4,4.2-7.1
			c2.1-1.7,4.9-2.5,8.2-2.5c1.4,0,2.6,0.1,3.6,0.4s1.9,0.6,2.7,1.1l-1.3,6c-0.7-0.6-1.4-1-2.3-1.2s-2-0.4-3.3-0.4
			c-1.4,0-2.5,0.3-3.5,1c-0.9,0.7-1.5,1.6-1.8,2.9c-0.1,0.4-0.2,0.9-0.2,1.2c0,0.9,0.3,1.5,0.9,2s1.6,0.6,2.9,0.6
			c1.2,0,2.4-0.1,3.4-0.4s2.1-0.7,3.1-1.3l-1.2,5.9c-2,1-4.4,1.5-7.1,1.5C94.8,37.7,93.4,37.4,92.1,36.8z M110.2,36.8
			c-1.3-0.6-2.2-1.5-3-2.7s-1.1-2.5-1.1-4c0-0.7,0.1-1.3,0.2-2c0.4-1.9,1.2-3.6,2.3-5.1s2.6-2.6,4.2-3.4s3.6-1.2,5.6-1.2
			c1.6,0,3,0.3,4.3,0.9c1.2,0.6,2.2,1.5,2.9,2.7s1.1,2.5,1.1,4c0,0.7-0.1,1.4-0.2,2.1c-0.4,1.9-1.2,3.6-2.3,5.1
			c-1.1,1.5-2.6,2.6-4.2,3.4s-3.6,1.2-5.6,1.2C112.8,37.7,111.4,37.4,110.2,36.8z M118.5,30.8c0.8-0.7,1.4-1.6,1.6-2.7
			c0.1-0.5,0.1-0.9,0.1-1.2c0-1.7-1-2.5-3-2.5c-1.1,0-2,0.3-2.9,1s-1.4,1.6-1.6,2.7c-0.1,0.5-0.2,0.9-0.2,1.3c0,0.8,0.2,1.4,0.7,1.8
			s1.3,0.6,2.3,0.6S117.7,31.4,118.5,30.8z M130,18.7h5.6l3.7,8.6l1.8-8.6h6l-3.9,18.6h-5.6l-3.7-8.7l-1.8,8.7h-6L130,18.7z
			 M151.9,24h-4.8l1.1-5.3H164l-1.1,5.3h-4.8l-2.8,13.3H149L151.9,24z M168.1,18.8h5.9l3.5,18.6h-6.3l-0.5-3.2h-5.5l-1.9,3.2h-6.6
			L168.1,18.8z M170.3,29.5l-0.4-4.3l-2.3,4.3H170.3z M181.8,36.8c-1.3-0.6-2.3-1.4-3-2.5s-1.1-2.4-1.1-3.9c0-0.8,0.1-1.5,0.3-2.3
			c0.6-3.1,2-5.4,4.2-7.1c2.1-1.7,4.9-2.5,8.2-2.5c1.4,0,2.6,0.1,3.6,0.4s1.9,0.6,2.7,1.1l-1.3,6c-0.7-0.6-1.4-1-2.3-1.2
			c-0.9-0.2-2-0.4-3.3-0.4c-1.4,0-2.5,0.3-3.5,1c-0.9,0.7-1.5,1.6-1.8,2.9c-0.1,0.4-0.2,0.9-0.2,1.2c0,0.9,0.3,1.5,0.9,2
			s1.6,0.6,2.9,0.6c1.2,0,2.4-0.1,3.4-0.4s2.1-0.7,3.1-1.3l-1.2,5.9c-2,1-4.4,1.5-7.1,1.5C184.6,37.7,183.1,37.4,181.8,36.8z
			 M201.4,24h-4.8l1.1-5.3h15.8l-1.1,5.3h-4.8l-2.8,13.3h-6.3L201.4,24z M168.4,57.8c-0.8-0.1-1.4-0.3-1.9-0.6l0.4-2
			c1.2,0.6,2.5,0.9,4,0.9c1.2,0,2.1-0.2,2.8-0.6c0.7-0.4,1.1-1,1.2-1.8c0-0.2,0.1-0.4,0.1-0.6c0-0.6-0.2-1-0.8-1.2s-1.3-0.4-2.3-0.4
			h-1.8l0.4-2h1.7c1,0,1.8-0.2,2.4-0.5s1-0.9,1.2-1.7c0-0.2,0.1-0.4,0.1-0.6c0-1.1-0.8-1.7-2.4-1.7c-0.8,0-1.5,0.1-2.1,0.3
			s-1.4,0.5-2.1,0.9l0.4-2c1.4-0.7,2.9-1.1,4.6-1.1c1.4,0,2.4,0.3,3.2,0.9c0.8,0.6,1.2,1.4,1.2,2.4c0,0.3,0,0.6-0.1,0.8
			c-0.1,0.7-0.5,1.4-1,1.9c-0.5,0.6-1.1,1-2,1.4c0.7,0.2,1.2,0.5,1.5,1s0.5,1,0.5,1.6c0,0.3,0,0.5-0.1,0.8c-0.3,1.3-0.9,2.3-2,3.1
			s-2.6,1.1-4.6,1.1C170,58,169.2,57.9,168.4,57.8z M179.8,56.8c-0.8-0.8-1.2-1.9-1.2-3.3c0-0.6,0.1-1.2,0.2-1.8
			c0.4-1.8,1-3.4,1.8-4.7s1.8-2.3,3-3s2.5-1,3.9-1c0.8,0,1.6,0.1,2.2,0.3l-0.4,2.1c-0.5-0.2-1.1-0.4-1.9-0.4c-1.3,0-2.5,0.4-3.4,1.2
			s-1.7,2-2.1,3.5c0.6-0.5,1.2-0.8,1.9-1.1c0.7-0.2,1.4-0.3,2.2-0.3c1.1,0,2.1,0.3,2.8,1s1.1,1.5,1.1,2.6c0,0.4,0,0.7-0.1,1.2
			c-0.3,1.5-1.1,2.7-2.2,3.6s-2.6,1.4-4.4,1.4C181.7,58,180.6,57.6,179.8,56.8z M185.7,55.3c0.6-0.5,1.1-1.2,1.2-2.1
			c0.1-0.4,0.1-0.7,0.1-0.9c0-0.6-0.2-1.1-0.6-1.5s-1-0.5-1.8-0.5s-1.6,0.3-2.2,0.8c-0.7,0.6-1.1,1.3-1.3,2.1
			c-0.1,0.2-0.1,0.5-0.1,0.8c0,0.6,0.2,1.2,0.6,1.6c0.4,0.4,1,0.6,1.8,0.6C184.3,56.1,185.1,55.8,185.7,55.3z M191.7,56.6
			c-0.9-0.9-1.3-2.2-1.3-3.8c0-0.7,0.1-1.5,0.2-2.3c0.5-2.4,1.4-4.2,2.8-5.5s3-2,5-2c1.5,0,2.7,0.5,3.6,1.4c0.9,0.9,1.3,2.2,1.3,3.9
			c0,0.7-0.1,1.4-0.2,2.2c-0.5,2.3-1.4,4.2-2.8,5.5s-3,2-5,2C193.7,58,192.6,57.5,191.7,56.6z M198.7,54.3c0.8-0.9,1.4-2.2,1.7-3.8
			c0.2-0.8,0.3-1.6,0.3-2.1c0-2-0.9-3-2.7-3c-1.1,0-2.1,0.5-2.9,1.4c-0.8,0.9-1.4,2.2-1.8,3.8c-0.2,0.8-0.2,1.5-0.2,2.1
			c0,2,0.9,3,2.7,3C196.9,55.7,197.9,55.2,198.7,54.3z M86.3,41h8.9c1.8,0,3.3,0.5,4.5,1.3s1.8,2.2,1.8,3.8c0,0.5-0.1,1.1-0.2,1.6
			c-0.5,2.3-1.4,4-2.9,5.1s-3.5,1.7-6,1.7h-2.6l-1.1,5.1h-6.3L86.3,41z M92.1,49.8c0.9,0,1.5-0.2,2-0.4c0.4-0.3,0.7-0.8,0.9-1.6
			c0.1-0.2,0.1-0.5,0.1-0.7c0-0.5-0.2-0.8-0.5-1.1c-0.3-0.2-0.9-0.3-1.6-0.3h-1.3l-0.8,4.1H92.1z M105.5,59c-1.3-0.6-2.2-1.5-3-2.7
			s-1.1-2.5-1.1-4c0-0.7,0.1-1.3,0.2-2c0.4-1.9,1.2-3.6,2.3-5.1s2.6-2.6,4.2-3.4s3.6-1.2,5.6-1.2c1.6,0,3,0.3,4.3,0.9
			c1.2,0.6,2.2,1.5,2.9,2.7s1.1,2.5,1.1,4c0,0.7-0.1,1.4-0.2,2.1c-0.4,1.9-1.2,3.6-2.3,5.1s-2.6,2.6-4.2,3.4s-3.6,1.2-5.6,1.2
			C108.2,60,106.8,59.7,105.5,59z M113.8,53c0.8-0.7,1.4-1.6,1.6-2.7c0.1-0.5,0.1-0.9,0.1-1.2c0-1.7-1-2.5-3-2.5c-1.1,0-2,0.3-2.9,1
			s-1.4,1.6-1.6,2.7c-0.1,0.5-0.2,0.9-0.2,1.3c0,0.8,0.2,1.4,0.7,1.8c0.5,0.4,1.3,0.6,2.3,0.6S113,53.7,113.8,53z M125,41h6.3
			l-3.9,18.6h-6.3L125,41z M133.6,41h5.6l3.7,8.6l1.8-8.6h6l-3.9,18.6h-5.6l-3.7-8.7l-1.8,8.7h-6L133.6,41z M155.8,46.3H151l1.1-5.3
			H168l-1.1,5.3h-4.8l-2.8,13.3H153L155.8,46.3z"/>
		
			<linearGradient id="SVGID_1_" gradientUnits="userSpaceOnUse" x1="61.3643" y1="603.4483" x2="39.6061" y2="543.6683" gradientTransform="matrix(1 0 0 1 0 -534)">
			<stop  offset="0.5" style="stop-color:#FF4438"/>
			<stop  offset="1" style="stop-color:#B2342B"/>
		</linearGradient>
		<path class="st2" d="M75.1,38.2c0,17.4-11.8,32-27.8,36.2l0,0l-7.1-17.7c9.1-1.3,16.1-9.1,16.1-18.6c0-10.4-8.4-18.8-18.8-18.8
			c-8,0-14.9,5-17.5,12.1C25.2,16.8,39.3,6.2,55.9,6.2c0.4,0,0.9,0,1.3,0C67.9,12.8,75.1,24.7,75.1,38.2z"/>
		<path class="st3" d="M19.5,33c-0.5,1.6-0.7,3.3-0.7,5.1c0,5,2,9.6,5.2,12.9c0.2,0.2,0.4,0.4,0.6,0.6l22.7,22.7l0,0
			c-3.1,0.8-6.4,1.3-9.7,1.3c-1.1,0-2.2-0.1-3.3-0.1C15,73.9,0,57.8,0,38.2C0,17.5,16.8,0.6,37.5,0.6c7.2,0,14,2,19.7,5.6
			c-0.4,0-0.9,0-1.3,0C39.3,6.2,25.2,16.8,20,31.5C19.8,32,19.7,32.4,19.5,33C19.5,33,19.5,33,19.5,33z"/>
	</g>
	<g>
		<g>
			<polygon class="st4" points="300,62.6 300,2.5 258.1,2.5 258.1,62.6 279,73.9 			"/>
		</g>
		<g>
			<rect x="258.1" y="2.5" class="st5" width="41.9" height="41.9"/>
			<g>
				<g>
					<path class="st6" d="M268.5,9v0.6c0,1.1-0.3,1.9-1,2.6c-0.7,0.7-1.5,1-2.6,1s-2.1-0.4-2.8-1.1c-0.7-0.7-1.1-1.6-1.1-2.7
						s0.4-2,1.1-2.7s1.7-1.1,2.8-1.1c1.4,0,2.6,0.7,3.2,1.7L266.9,8c-0.3-0.6-1.1-1-2-1c-0.7,0-1.3,0.2-1.7,0.7
						c-0.5,0.5-0.7,1-0.7,1.7s0.2,1.3,0.7,1.7c0.5,0.5,1.1,0.7,1.8,0.7c1.1,0,1.9-0.5,2.1-1.4h-2.2V9H268.5z"/>
					<path class="st6" d="M270.7,8.6c0.2-0.7,0.8-1,1.5-1v1.5c-0.4-0.1-0.7,0-1.1,0.3c-0.3,0.2-0.5,0.6-0.5,1.1V13h-1.3V7.7h1.3v0.9
						H270.7z"/>
					<path class="st6" d="M274.4,10.9c0.2,0.7,0.7,1,1.5,1c0.5,0,0.9-0.2,1.2-0.5l1.1,0.6c-0.5,0.7-1.3,1.1-2.3,1.1
						c-0.9,0-1.6-0.3-2.1-0.8s-0.8-1.2-0.8-2s0.3-1.5,0.8-2s1.2-0.8,2-0.8s1.4,0.3,1.9,0.8s0.8,1.2,0.8,2c0,0.2,0,0.4-0.1,0.6
						C278.4,10.9,274.4,10.9,274.4,10.9z M277,9.8c-0.2-0.7-0.7-1.1-1.3-1.1c-0.7,0-1.2,0.4-1.4,1.1H277z"/>
					<path class="st6" d="M283.3,7.7h1.4V13h-1.4v-0.6c-0.4,0.5-1,0.8-1.7,0.8s-1.3-0.3-1.8-0.8s-0.7-1.2-0.7-2s0.3-1.4,0.7-2
						c0.5-0.5,1.1-0.8,1.8-0.8c0.7,0,1.3,0.3,1.7,0.8V7.7z M281.8,11.8c0.4,0,0.8-0.1,1-0.4c0.3-0.3,0.4-0.6,0.4-1.1
						c0-0.4-0.1-0.8-0.4-1.1s-0.6-0.4-1-0.4s-0.8,0.1-1,0.4c-0.3,0.3-0.4,0.6-0.4,1.1c0,0.4,0.1,0.8,0.4,1.1
						C281.1,11.7,281.4,11.8,281.8,11.8z"/>
					<path class="st6" d="M289.1,9h-1.2v2.2c0,0.6,0.4,0.6,1.2,0.5V13c-1.9,0.2-2.5-0.3-2.5-1.8V9h-0.9V7.7h0.9V6.6l1.4-0.4v1.5h1.2
						V9H289.1z"/>
					<path class="st6" d="M264.7,14.8c0.7,0,1.3,0.2,1.8,0.7s0.7,1.1,0.7,1.8c0,0.7-0.2,1.3-0.7,1.8s-1.1,0.7-1.8,0.7h-1.3v2.4h-1.5
						v-7.4C261.9,14.8,264.7,14.8,264.7,14.8z M264.7,18.4c0.6,0,1.1-0.5,1.1-1.1s-0.5-1.1-1.1-1.1h-1.3v2.2H264.7z"/>
					<path class="st6" d="M268.2,22.2v-7.3h1.4v7.3H268.2z"/>
					<path class="st6" d="M275,16.9h1.4v5.3H275v-0.6c-0.4,0.5-1,0.8-1.7,0.8s-1.3-0.3-1.8-0.8s-0.7-1.2-0.7-2s0.3-1.4,0.7-2
						c0.5-0.5,1.1-0.8,1.8-0.8c0.7,0,1.3,0.3,1.7,0.8V16.9z M273.5,21.1c0.4,0,0.8-0.1,1-0.4c0.3-0.3,0.4-0.6,0.4-1.1
						s-0.1-0.8-0.4-1.1c-0.3-0.3-0.6-0.4-1-0.4s-0.8,0.1-1,0.4c-0.3,0.3-0.4,0.6-0.4,1.1s0.1,0.8,0.4,1.1
						C272.7,20.9,273.1,21.1,273.5,21.1z"/>
					<path class="st6" d="M278.3,21.5c-0.5-0.5-0.8-1.2-0.8-2s0.3-1.4,0.8-2c0.5-0.5,1.2-0.8,2-0.8c1,0,1.9,0.5,2.4,1.4l-1.2,0.7
						c-0.2-0.4-0.7-0.7-1.2-0.7c-0.8,0-1.4,0.6-1.4,1.4c0,0.4,0.1,0.8,0.4,1c0.3,0.3,0.6,0.4,1,0.4c0.5,0,1-0.3,1.2-0.7l1.2,0.7
						c-0.5,0.8-1.4,1.4-2.4,1.4C279.5,22.3,278.8,22.1,278.3,21.5z"/>
					<path class="st6" d="M284.8,20.1c0.2,0.7,0.7,1,1.5,1c0.5,0,0.9-0.2,1.2-0.5l1.1,0.6c-0.5,0.7-1.3,1.1-2.3,1.1
						c-0.9,0-1.6-0.3-2.1-0.8s-0.8-1.2-0.8-2s0.3-1.5,0.8-2s1.2-0.8,2-0.8s1.4,0.3,1.9,0.8s0.8,1.2,0.8,2c0,0.2,0,0.4-0.1,0.6
						C288.8,20.1,284.8,20.1,284.8,20.1z M287.5,19.1c-0.2-0.7-0.7-1.1-1.3-1.1c-0.7,0-1.2,0.4-1.4,1.1H287.5z"/>
					<path class="st6" d="M266.4,24.5v1.3h-2v5.7h-1.5v-5.7h-2v-1.3H266.4z"/>
					<path class="st6" d="M268.6,31.6c-0.8,0-1.4-0.3-2-0.8c-0.5-0.5-0.8-1.2-0.8-2s0.3-1.4,0.8-2c0.5-0.5,1.2-0.8,2-0.8
						s1.4,0.3,2,0.8c0.5,0.5,0.8,1.2,0.8,2s-0.3,1.4-0.8,2C270.1,31.3,269.4,31.6,268.6,31.6z M268.6,30.3c0.4,0,0.7-0.1,1-0.4
						s0.4-0.6,0.4-1s-0.1-0.8-0.4-1c-0.3-0.3-0.6-0.4-1-0.4s-0.7,0.1-1,0.4s-0.4,0.6-0.4,1s0.1,0.8,0.4,1S268.2,30.3,268.6,30.3z"/>
					<path class="st6" d="M263.2,41.1l-2.1-7.4h1.5l1.4,5.5l1.5-5.5h1.2l1.5,5.5l1.4-5.5h1.5l-2.1,7.4h-1.6l-1.4-4.9l-1.4,4.9H263.2
						z"/>
					<path class="st6" d="M274,41.3c-0.8,0-1.4-0.3-2-0.8c-0.5-0.5-0.8-1.2-0.8-2s0.3-1.4,0.8-2c0.5-0.5,1.2-0.8,2-0.8
						s1.4,0.3,2,0.8c0.5,0.5,0.8,1.2,0.8,2s-0.3,1.4-0.8,2C275.4,41,274.8,41.3,274,41.3z M274,39.9c0.4,0,0.7-0.1,1-0.4
						c0.3-0.3,0.4-0.6,0.4-1s-0.1-0.8-0.4-1c-0.3-0.3-0.6-0.4-1-0.4s-0.7,0.1-1,0.4c-0.3,0.3-0.4,0.6-0.4,1s0.1,0.8,0.4,1
						C273.2,39.8,273.6,39.9,274,39.9z"/>
					<path class="st6" d="M279.1,36.8c0.3-0.7,0.9-1,1.6-1v1.5c-0.4-0.1-0.8,0-1.1,0.3c-0.3,0.2-0.5,0.6-0.5,1.1v2.5h-1.4v-5.3h1.4
						V36.8z"/>
					<path class="st6" d="M286.5,41.1H285l-1.9-2.4v2.4h-1.4v-7.4h1.4v4.4l1.8-2.3h1.6l-2.1,2.6L286.5,41.1z"/>
				</g>
				<g>
					<path class="st6" d="M287,40.2c0-0.7,0.5-1.2,1.2-1.2s1.2,0.5,1.2,1.2s-0.5,1.2-1.2,1.2C287.6,41.3,287,40.8,287,40.2z
						 M289.2,40.2c0-0.6-0.4-1-1-1s-1,0.4-1,1s0.4,1,1,1C288.8,41.1,289.2,40.7,289.2,40.2z M287.8,39.6h0.4c0.3,0,0.4,0.1,0.4,0.4
						l0,0c0,0.2-0.1,0.3-0.2,0.3l0.3,0.5h-0.3l-0.3-0.5H288v0.5h-0.3v-1.2H287.8z M288.2,40.1c0.1,0,0.2-0.1,0.2-0.2l0,0
						c0-0.1-0.1-0.2-0.2-0.2h-0.1V40h0.1V40.1z"/>
				</g>
			</g>
		</g>
		<path class="st6" d="M278.9,67.3c-0.1,0-0.2,0-0.3,0c-0.2,0-0.1,0-0.2-0.1c-0.3-0.5-0.7-0.9-1-1.4c0,0,0,0-0.1-0.1
			c0,0.1,0,0.3,0,0.4s0,0.3,0,0.4s0,0.3,0,0.4s0,0.3,0,0.4c-0.2,0-0.4,0-0.5,0c0-0.9,0-1.7,0-2.6c0.1,0,0.2,0,0.3,0
			c0.1,0,0.1,0,0.2,0s0.1,0.1,0.1,0.2c0.3,0.4,0.6,0.9,0.9,1.3c0,0,0,0,0.1,0.1c0-0.1,0-0.2,0-0.3c0-0.1,0-0.2,0-0.3
			c0-0.1,0-0.2,0-0.3c0-0.1,0-0.2,0-0.3c0-0.1,0-0.2,0-0.3c0.1,0,0.4,0,0.5,0C278.9,64.7,278.9,67.2,278.9,67.3z M282.1,67.3h0.1
			c0.3,0,0.6,0,0.9,0c0.1,0,0.2,0,0.3,0c0.5-0.1,0.9-0.4,1-1c0-0.2,0-0.4,0-0.6c-0.1-0.4-0.3-0.7-0.7-0.9c-0.2-0.1-0.4-0.1-0.6-0.1
			c-0.3,0-0.7,0-1,0H282C282.1,65.5,282.1,66.4,282.1,67.3z M282.6,65.1C282.6,65.1,282.7,65.1,282.6,65.1c0.2,0,0.4,0,0.5,0
			c0.4,0,0.6,0.2,0.7,0.6c0,0.2,0,0.4,0,0.6c-0.1,0.3-0.3,0.5-0.6,0.5c-0.2,0-0.4,0-0.6,0l0,0C282.6,66.2,282.6,65.7,282.6,65.1z
			 M273.8,65.6c-0.1-0.4-0.3-0.7-0.7-0.8c-0.4-0.2-0.8-0.2-1.1,0c-0.3,0.1-0.6,0.4-0.7,0.7c-0.1,0.3-0.1,0.6,0,0.9
			c0.1,0.4,0.4,0.7,0.8,0.9c0.3,0.1,0.7,0.1,1,0c0.4-0.1,0.6-0.4,0.7-0.8v-0.1c-0.2,0-0.4,0-0.6,0c0,0,0,0,0,0.1
			c-0.1,0.3-0.3,0.4-0.6,0.5c-0.4,0.1-0.8-0.2-0.8-0.6c0-0.2,0-0.4,0-0.5c0.1-0.3,0.3-0.5,0.6-0.6c0.3,0,0.7,0.1,0.8,0.5
			c0,0,0,0,0,0.1C273.4,65.7,273.6,65.7,273.8,65.6L273.8,65.6z M281.8,67.2c-0.3-0.7-0.6-1.4-0.9-2.1c-0.1-0.1-0.1-0.3-0.2-0.4
			c0,0,0-0.1-0.1-0.1s-0.3,0-0.4,0c-0.1,0.1-1.1,2.5-1.1,2.6h0.1c0.1,0,0.2,0,0.4,0c0.1,0,0.1,0,0.2-0.1s0.1-0.3,0.2-0.4
			c0.4,0,0.7,0,1.1,0c0.1,0.1,0.1,0.3,0.2,0.4c0,0.1,0,0.1,0.1,0.1C281.4,67.3,281.6,67.3,281.8,67.2
			C281.7,67.3,281.8,67.3,281.8,67.2L281.8,67.2z M280.1,66.3c0.1-0.3,0.2-0.5,0.3-0.8l0,0c0.1,0.3,0.2,0.5,0.3,0.8
			C280.6,66.3,280.4,66.3,280.1,66.3z M275.4,64.7C275.3,64.7,275.3,64.7,275.4,64.7c-0.2,0-0.3,0-0.5,0c-0.4,0.9-0.7,1.7-1.1,2.6
			l0,0c0.2,0,0.3,0,0.5,0c0,0,0,0,0.1,0v-0.1c0.1-0.1,0.1-0.2,0.2-0.4c0.4,0,0.7,0,1.1,0v0.1c0,0.1,0.1,0.2,0.1,0.3
			c0,0,0,0.1,0.1,0.1c0.2,0,0.4,0,0.6,0C276.1,66.4,275.7,65.5,275.4,64.7z M275.1,65.5c0.1,0.3,0.2,0.5,0.3,0.8c-0.2,0-0.4,0-0.7,0
			C274.9,66.1,275,65.8,275.1,65.5z M287.1,67.2c-0.1-0.2-0.2-0.5-0.3-0.7c-0.2-0.6-0.5-1.2-0.7-1.7c0-0.1-0.1-0.1-0.1-0.1h-0.3
			c-0.1,0-0.1,0-0.1,0.1c-0.3,0.8-0.7,1.6-1.1,2.5c0,0,0,0,0,0.1c0.2,0,0.4,0,0.6,0c0.1-0.2,0.1-0.3,0.2-0.5c0.4,0,0.7,0,1.1,0l0,0
			c0.1,0.1,0.1,0.3,0.2,0.4c0,0,0,0.1,0.1,0.1s0.2,0,0.3,0C286.9,67.3,287,67.3,287.1,67.2L287.1,67.2z M285.4,66.3
			c0.1-0.3,0.2-0.5,0.3-0.8c0.1,0.3,0.2,0.5,0.3,0.8C285.9,66.3,285.6,66.3,285.4,66.3z M267.6,50.7c-0.5,0-0.9,0.1-1.4,0.1v-0.1
			c-0.1-0.2-0.1-0.4-0.2-0.6c-0.2-0.3-0.5-0.5-0.8-0.6c-0.4-0.1-0.8-0.1-1.2,0c-0.6,0.2-0.9,0.5-1.1,1.1c-0.1,0.3-0.2,0.6-0.2,0.9
			c0,0.4,0,0.7,0.2,1.1c0.3,0.6,0.8,1,1.4,1c0.3,0,0.6,0,0.9-0.1c0.5-0.2,0.8-0.5,1-1c0-0.1,0-0.1,0.1-0.2c0.5,0,0.9,0.1,1.4,0.1
			v0.1c-0.2,1-0.8,1.7-1.8,2.1c-0.5,0.2-1,0.2-1.6,0.2c-0.4,0-0.8-0.1-1.1-0.3c-1-0.4-1.5-1.2-1.7-2.2c-0.1-0.6-0.1-1.1,0-1.7
			c0.2-1.1,0.9-1.9,2-2.2c0.9-0.3,1.8-0.3,2.6,0.1c0.6,0.3,1.1,0.7,1.4,1.2C267.4,50.1,267.5,50.4,267.6,50.7L267.6,50.7z
			 M296.4,48.1c-0.4,0-0.8,0-1.2,0c0,0.1,0,0.3,0,0.4c0,0.1,0,0.3,0,0.4s0,0.3,0,0.4s0,0.3,0,0.4s0,0.3,0,0.4c0,0.1,0,0.3,0,0.4l0,0
			c-0.2-0.2-0.4-0.3-0.6-0.3c-0.3-0.1-0.7-0.1-1,0c-0.8,0.1-1.3,0.6-1.6,1.3c-0.2,0.6-0.2,1.1,0,1.7c0.2,0.6,0.5,1,1.1,1.3
			c0.4,0.2,0.9,0.3,1.3,0.2c0.3-0.1,0.7-0.2,0.9-0.5l0,0c0,0.1,0,0.3,0,0.4c0.4,0,0.8,0,1.2,0C296.4,54.7,296.4,48.2,296.4,48.1z
			 M295.1,53.1c-0.1,0.4-0.5,0.6-0.9,0.6c-0.1,0-0.2,0-0.4,0c-0.3-0.1-0.6-0.3-0.7-0.6c-0.1-0.4-0.1-0.7,0-1.1
			c0.1-0.4,0.5-0.7,0.9-0.7c0.2,0,0.3,0,0.5,0.1c0.3,0.1,0.4,0.3,0.5,0.6c0,0.2,0.1,0.3,0.1,0.5C295.2,52.8,295.1,53,295.1,53.1z
			 M291.4,52.9c0-0.1,0-0.3,0-0.4c0-0.2,0-0.4-0.1-0.6c-0.2-0.7-0.6-1.2-1.3-1.4c-0.4-0.1-0.8-0.1-1.2-0.1c-0.8,0.2-1.4,0.6-1.6,1.4
			c-0.2,0.5-0.2,1.1-0.1,1.6c0.2,0.7,0.6,1.2,1.4,1.5c0.3,0.1,0.7,0.1,1,0.1c0.5,0,0.9-0.2,1.3-0.5c0.3-0.2,0.4-0.5,0.5-0.8v-0.1
			c-0.4,0-0.8,0-1.3-0.1l0,0c-0.1,0.2-0.2,0.3-0.4,0.4c-0.2,0-0.3,0.1-0.5,0c-0.4,0-0.7-0.3-0.8-0.7c0-0.1,0-0.1,0-0.2c1,0,2,0,3,0
			C291.4,52.9,291.4,52.9,291.4,52.9z M288.4,52c0.1-0.4,0.4-0.7,0.8-0.7c0.1,0,0.2,0,0.3,0c0.3,0.1,0.5,0.3,0.5,0.6
			c0,0.1,0,0.2,0,0.2c-0.1,0-1.7,0-1.8,0C288.4,52.1,288.4,52,288.4,52z M272.3,52.9c0-0.2,0-0.3,0-0.5s0-0.5-0.1-0.7
			c-0.2-0.7-0.6-1.1-1.3-1.3c-0.4-0.1-0.8-0.1-1.3-0.1c-0.8,0.2-1.4,0.6-1.6,1.4c-0.2,0.5-0.2,1.1,0,1.6c0.2,0.7,0.6,1.2,1.3,1.4
			c0.3,0.1,0.7,0.2,1,0.1c0.5,0,0.9-0.2,1.3-0.5c0.3-0.2,0.5-0.5,0.6-0.9v-0.1c-0.4,0-0.8,0-1.3-0.1l0,0c-0.1,0.2-0.2,0.3-0.4,0.4
			c-0.2,0-0.3,0.1-0.5,0c-0.4,0-0.7-0.3-0.8-0.7c0,0,0-0.1,0-0.2c1,0,2,0,3,0C272.3,52.9,272.3,52.9,272.3,52.9z M269.3,52.1
			c0-0.1,0-0.2,0-0.2c0.1-0.4,0.4-0.6,0.8-0.6c0.1,0,0.2,0,0.3,0c0.3,0,0.4,0.2,0.5,0.4c0.1,0.1,0.1,0.3,0.1,0.4
			C270.5,52.1,269.9,52.1,269.3,52.1z M283.4,50.3c0-0.2,0-0.3,0-0.5c0-0.3,0.2-0.5,0.5-0.6c0.2,0,0.3,0,0.5,0h0.1
			c0-0.4,0-0.7,0-1.1c0,0,0,0-0.1,0c-0.3,0-0.5,0-0.8,0c-0.5,0.1-0.9,0.3-1.2,0.8c-0.2,0.2-0.2,0.5-0.3,0.8c0,0.2,0,0.4,0,0.6v0.1
			c-0.3,0-0.5,0-0.8,0c0,0.4,0,0.7,0,1.1c0.3,0,0.5,0,0.8,0c0,0.2,0,0.5,0,0.7s0,0.4,0,0.7c0,0.2,0,0.4,0,0.7c0,0.2,0,0.4,0,0.7
			c0,0.2,0,0.4,0,0.7c0.4,0,0.8,0,1.2,0c0-1.1,0-2.2,0-3.3c0.1,0,0.2,0,0.3,0c0.1,0,0.2,0,0.3,0c0.1,0,0.2,0,0.3,0c0-0.1,0-1,0-1.1
			C284.1,50.4,283.8,50.4,283.4,50.3L283.4,50.3z M275.9,50.4c0,0.4,0,0.7,0,1.1c0.3,0,0.5,0,0.8,0v0.1c0,0.4,0,0.7,0,1.1
			c0,0,0,0,0,0.1c0,0.3,0,0.6,0,0.9c0,0.3,0.1,0.6,0.4,0.8c0.2,0.2,0.4,0.3,0.7,0.3c0.4,0.1,0.7,0.1,1.1,0h0.1c0-0.1,0-1,0-1.1h-0.1
			c-0.2,0-0.3,0-0.5,0c-0.2-0.1-0.3-0.2-0.4-0.4c0-0.1,0-0.2,0-0.3c0-0.5,0-1,0-1.5v-0.1c0.3,0,0.7,0,1,0c0-0.1,0-1,0-1.1
			c-0.3,0-0.7,0-1,0c0-0.2,0-0.3,0-0.5s0-0.3,0-0.5s0-0.3,0-0.5c-0.2,0-1.2,0-1.3,0c0,0.5,0,1,0,1.4
			C276.4,50.4,276.2,50.4,275.9,50.4z M274.2,50.8c0-0.1,0-0.3,0-0.4c-0.4,0-0.8,0-1.2,0c0,1.5,0,2.9,0,4.4c0.4,0,0.8,0,1.3,0v-0.1
			c0-0.7,0-1.4,0-2v-0.1c0-0.4,0.2-0.6,0.5-0.8c0.2-0.1,0.3-0.1,0.5-0.1h0.1c0-0.4,0-0.8,0-1.2C274.9,50.3,274.5,50.4,274.2,50.8z
			 M279.7,50.4c0,1.5,0,2.9,0,4.4c0.4,0,0.8,0,1.2,0c0-1.5,0-2.9,0-4.4C280.5,50.4,280.1,50.4,279.7,50.4z M286.4,50.4
			c-0.4,0-0.8,0-1.2,0c0,1.5,0,2.9,0,4.4c0.4,0,0.8,0,1.2,0C286.4,53.3,286.4,51.8,286.4,50.4z M281,48.9c0-0.3-0.2-0.6-0.5-0.7
			c-0.3-0.1-0.6-0.1-0.8,0.2c-0.2,0.2-0.2,0.4-0.2,0.7c0.1,0.4,0.4,0.6,0.7,0.6C280.7,49.7,281.1,49.3,281,48.9z M286.6,48.9
			c0-0.3-0.2-0.6-0.5-0.7c-0.3-0.1-0.6-0.1-0.8,0.2c-0.2,0.2-0.3,0.5-0.2,0.7c0.1,0.3,0.4,0.5,0.7,0.5
			C286.3,49.7,286.6,49.3,286.6,48.9z M262.5,60.3c0.1-0.1,0.1-0.3,0.2-0.4c0.2-0.4,0.4-0.8,0.6-1.2c0-0.1,0.1-0.1,0.1-0.2
			c0,0,0,0,0.1,0s0.3,0,0.4,0l0,0c0,0.4,0,0.8,0,1.3c0,0.4,0,0.9,0,1.3c0,0,0,0,0,0.1l0,0c-0.2,0-0.3,0-0.5,0l0,0c0-0.4,0-0.9,0-1.3
			l0,0l0,0l0,0c-0.2,0.4-0.4,0.8-0.7,1.3c0,0.1-0.1,0.1-0.1,0.1c-0.1,0-0.2,0-0.2,0s0,0-0.1,0c-0.1-0.2-0.2-0.4-0.3-0.7
			c-0.1-0.2-0.2-0.4-0.3-0.7l0,0c0,0,0,0,0,0.1c0,0.4,0,0.9,0,1.3c0,0.1,0,0.1-0.1,0.1c-0.2,0-0.3,0-0.5,0c0,0-0.1,0-0.1-0.1
			c0-0.9,0-1.7,0-2.6c0,0,0-0.1,0.1-0.1s0.3,0,0.4,0c0,0,0,0,0.1,0C261.9,59.2,262.2,59.7,262.5,60.3
			C262.5,60.2,262.5,60.3,262.5,60.3z M287.7,59.7c0.1-0.1,0.1-0.1,0.2-0.2c0.1-0.1,0.1-0.3,0.1-0.4c0-0.2-0.1-0.4-0.2-0.5
			c-0.2-0.1-0.3-0.2-0.5-0.2c-0.4,0-0.8,0-1.1,0c0,0-0.1,0-0.1,0.1c0,0.9,0,1.7,0,2.6l0,0c0.4,0,0.8,0,1.2,0c0.1,0,0.2,0,0.3-0.1
			c0.2-0.1,0.3-0.2,0.4-0.4s0.1-0.4,0.1-0.6C288,60,287.9,59.8,287.7,59.7L287.7,59.7L287.7,59.7z M287.2,60c0.1,0,0.2,0.1,0.3,0.2
			c0.1,0.2,0,0.4-0.3,0.4c-0.1,0-0.2,0-0.2,0c-0.1,0-0.3,0-0.4,0l0,0c0-0.2,0-0.4,0-0.6l0,0c0.1,0,0.2,0,0.3,0l0,0
			C287,60,287.1,60,287.2,60z M286.6,59L286.6,59c0.2,0,0.4,0,0.5,0h0.1c0.1,0.1,0.2,0.2,0.2,0.3s-0.1,0.2-0.2,0.2s-0.1,0-0.2,0
			s-0.2,0-0.4,0l0,0C286.6,59.3,286.6,59.2,286.6,59z M268.9,60.1C268.9,60.1,269,60.1,268.9,60.1c0.2-0.1,0.2-0.2,0.3-0.3
			c0.1-0.2,0.1-0.4,0.1-0.6c0-0.2-0.1-0.3-0.1-0.4c-0.2-0.2-0.4-0.3-0.7-0.3c-0.4,0-0.8,0-1.1,0c-0.1,0-0.1,0-0.1,0.1
			c0,0.3,0,0.6,0,0.9c0,0.6,0,1.1,0,1.7c0,0,0,0.1,0,0c0.2,0,0.3,0,0.5,0c0,0,0.1,0,0.1-0.1c0-0.3,0-0.6,0-0.9c0-0.1,0-0.1,0.1-0.1
			s0.2,0,0.3,0c0.1,0,0.1,0,0.1,0.1c0.2,0.3,0.3,0.6,0.5,0.9c0,0,0,0,0.1,0c0.2,0,0.4,0,0.5,0l0,0C269.3,60.8,269.1,60.4,268.9,60.1
			L268.9,60.1z M267.9,59L267.9,59c0.2,0,0.3,0,0.5,0c0.1,0,0.2,0,0.3,0.1c0.1,0.1,0.1,0.2,0.1,0.3c0,0.2-0.1,0.3-0.3,0.3
			c-0.2,0-0.4,0-0.5,0l0,0C267.9,59.4,267.9,59.2,267.9,59z M264.3,61.1c0.2,0,0.3,0,0.5,0h0.1c0.1-0.1,0.1-0.3,0.2-0.4
			c0,0,0,0,0.1,0c0.3,0,0.7,0,1,0c0,0,0,0,0.1,0c0.1,0.1,0.1,0.3,0.2,0.4c0,0,0,0,0.1,0c0.2,0,0.3,0,0.5,0l0,0l0,0
			c-0.2-0.5-0.4-1-0.7-1.5c-0.2-0.3-0.3-0.7-0.5-1c0,0,0-0.1-0.1-0.1s-0.3,0-0.4,0c0,0,0,0-0.1,0c0,0,0,0.1-0.1,0.1
			C264.9,59.4,264.5,60.2,264.3,61.1C264.3,61.1,264.3,61.1,264.3,61.1L264.3,61.1z M266,60.2c-0.2,0-0.5,0-0.7,0
			c0.1-0.3,0.2-0.6,0.3-0.8l0,0C265.8,59.6,265.9,59.9,266,60.2z M272.6,60.6c0.1,0.2,0.2,0.4,0.4,0.5c0.2,0.1,0.4,0.2,0.7,0.1
			c0.2,0,0.3-0.1,0.5-0.2c0.2-0.2,0.3-0.4,0.3-0.7c0-0.2,0-0.4,0-0.5c0-0.2,0-0.4-0.1-0.6c-0.1-0.4-0.4-0.6-0.8-0.7
			c-0.2,0-0.4,0-0.6,0.1s-0.3,0.3-0.4,0.5s-0.1,0.5-0.1,0.8C272.4,60.1,272.5,60.3,272.6,60.6z M273.1,59.2c0-0.1,0.1-0.2,0.2-0.2
			c0.2-0.1,0.4-0.1,0.5,0.1c0.1,0.1,0.1,0.2,0.1,0.3c0.1,0.3,0.1,0.6,0,0.9c0,0.1-0.1,0.2-0.2,0.3c-0.2,0.2-0.5,0.1-0.6-0.1
			c-0.1-0.1-0.1-0.3-0.1-0.4c0-0.1,0-0.2,0-0.3C273,59.6,273,59.4,273.1,59.2z M293.1,59.2c-0.1-0.2-0.2-0.4-0.3-0.5
			c-0.2-0.2-0.4-0.2-0.7-0.2c-0.3,0-0.5,0.1-0.7,0.3s-0.3,0.5-0.3,0.8c0,0.2,0,0.4,0,0.6c0,0.2,0.1,0.4,0.2,0.6
			c0.2,0.4,0.7,0.6,1.1,0.4c0.3-0.1,0.4-0.3,0.5-0.5c0.1-0.3,0.1-0.5,0.1-0.8C293.2,59.6,293.1,59.4,293.1,59.2z M292.5,60.4
			c0,0.1-0.1,0.2-0.1,0.2c-0.2,0.2-0.4,0.1-0.6-0.1c-0.1-0.1-0.1-0.3-0.1-0.4c0-0.2,0-0.4,0-0.6c0-0.1,0-0.3,0.1-0.4
			c0.1-0.2,0.4-0.3,0.6-0.1c0.1,0.1,0.1,0.2,0.1,0.3c0.1,0.2,0.1,0.4,0.1,0.5C292.6,60,292.6,60.2,292.5,60.4z M284.5,60
			c0.3,0,0.6,0,0.9,0l0,0c0-0.1,0-0.3,0-0.4c0,0,0-0.1-0.1-0.1c-0.3,0-0.6,0-0.9,0l0,0c0-0.2,0-0.4,0-0.6c0,0,0,0,0.1,0
			c0.4,0,0.7,0,1.1,0l0,0c0-0.1,0-0.3,0-0.4c0,0,0-0.1-0.1-0.1c-0.5,0-1.1,0-1.6,0c0,0,0,0,0,0.1c0,0.9,0,1.7,0,2.6l0,0
			c0.5,0,1.1,0,1.6,0l0,0c0-0.1,0-0.3,0-0.4c0-0.1,0-0.1-0.1-0.1c-0.4,0-0.7,0-1.1,0c0,0-0.1,0-0.1-0.1s0-0.3,0-0.4
			C284.4,60.1,284.4,60.1,284.5,60L284.5,60z M290,60.6c0.1-0.1,0.1-0.1,0.2-0.2c0.1-0.2,0.3-0.3,0.4-0.5c0.2-0.3,0.3-0.6,0.3-1
			c0-0.2-0.2-0.4-0.4-0.5c-0.2-0.1-0.4-0.1-0.6-0.1c-0.5,0.1-0.6,0.4-0.6,0.8l0,0c0.2,0,0.3,0,0.5,0l0,0c0-0.1,0-0.1,0-0.2
			c0-0.1,0.1-0.1,0.2-0.1s0.2,0.1,0.2,0.2c0,0.1,0,0.3,0,0.4c-0.1,0.1-0.1,0.2-0.2,0.3c-0.3,0.3-0.5,0.6-0.8,0.9c0,0,0,0,0,0.1
			s0,0.2,0,0.4l0,0c0.5,0,1,0,1.6,0c0,0,0,0,0-0.1s0-0.3,0-0.4v-0.1C290.6,60.7,290.3,60.7,290,60.6C290,60.7,290,60.7,290,60.6
			L290,60.6z M296.1,60.6c0.2-0.2,0.3-0.4,0.5-0.6c0.2-0.3,0.4-0.6,0.4-0.9c0-0.3-0.1-0.5-0.4-0.6c-0.2-0.1-0.4-0.1-0.6-0.1
			c-0.5,0.1-0.6,0.4-0.7,0.8l0,0c0.2,0,0.3,0,0.5,0l0,0c0-0.1,0-0.1,0-0.2c0-0.1,0.1-0.1,0.2-0.1s0.2,0.1,0.2,0.2c0,0.1,0,0.2,0,0.3
			s-0.1,0.3-0.2,0.4c-0.3,0.3-0.5,0.6-0.8,0.9c0,0,0,0,0,0.1s0,0.2,0,0.3l0,0c0.5,0,1,0,1.6,0l0,0c0-0.1,0-0.3,0-0.4
			c0,0,0-0.1-0.1-0.1C296.7,60.7,296.4,60.7,296.1,60.6C296.2,60.7,296.1,60.7,296.1,60.6L296.1,60.6z M271.3,60.6L271.3,60.6
			c0.2-0.2,0.4-0.4,0.5-0.6c0.2-0.3,0.4-0.6,0.4-0.9c0-0.3-0.1-0.5-0.4-0.6c-0.2-0.1-0.4-0.1-0.6-0.1c-0.5,0.1-0.6,0.4-0.6,0.8l0,0
			c0.2,0,0.3,0,0.5,0l0,0c0-0.1,0-0.1,0-0.2c0-0.1,0.1-0.1,0.2-0.1s0.2,0.1,0.2,0.2c0,0.1,0,0.3,0,0.4c-0.1,0.1-0.1,0.2-0.2,0.3
			c-0.3,0.3-0.5,0.6-0.8,0.9c0,0,0,0,0,0.1s0,0.2,0,0.4l0,0c0.5,0,1,0,1.6,0l0,0c0-0.1,0-0.3,0-0.4c0-0.1,0-0.1-0.1-0.1
			C271.9,60.7,271.6,60.7,271.3,60.6C271.3,60.7,271.3,60.7,271.3,60.6L271.3,60.6z M294.2,60.6L294.2,60.6c0.2-0.2,0.4-0.4,0.6-0.6
			c0.2-0.3,0.4-0.6,0.3-1c0-0.2-0.1-0.4-0.4-0.5c-0.2-0.1-0.4-0.1-0.6-0.1c-0.5,0.1-0.6,0.4-0.7,0.8l0,0c0.2,0,0.3,0,0.5,0l0,0
			c0-0.1,0-0.1,0-0.2c0-0.1,0.1-0.2,0.2-0.2s0.2,0.1,0.2,0.2c0,0.1,0,0.3,0,0.4c-0.1,0.1-0.2,0.2-0.3,0.3c-0.2,0.3-0.5,0.6-0.7,0.8
			c0,0,0,0,0,0.1s0,0.2,0,0.4l0,0c0.5,0,1,0,1.6,0l0,0c0-0.1,0-0.3,0-0.4c0,0,0-0.1-0.1-0.1C294.8,60.7,294.5,60.7,294.2,60.6
			C294.2,60.7,294.2,60.7,294.2,60.6L294.2,60.6z M275.5,60.6L275.5,60.6c0.2-0.2,0.4-0.4,0.6-0.6c0.2-0.3,0.4-0.6,0.3-1
			c0-0.2-0.1-0.4-0.3-0.5c-0.2-0.1-0.5-0.1-0.8-0.1c-0.4,0.1-0.5,0.5-0.5,0.8l0,0c0.2,0,0.3,0,0.5,0l0,0c0-0.1,0-0.1,0-0.2
			c0-0.1,0.1-0.2,0.2-0.2s0.2,0.1,0.2,0.2c0,0.1,0,0.2,0,0.3s-0.1,0.3-0.2,0.4c-0.3,0.3-0.5,0.6-0.8,0.9c0,0,0,0,0,0.1s0,0.2,0,0.4
			l0,0c0.5,0,1,0,1.6,0l0,0c0-0.1,0-0.3,0-0.4c0-0.1,0-0.1-0.1-0.1C276.1,60.7,275.8,60.7,275.5,60.6
			C275.6,60.7,275.5,60.7,275.5,60.6L275.5,60.6z M282.4,59c0.4,0,0.7,0,1.1,0c0,0,0.1,0,0.1-0.1s0-0.3,0-0.4l0,0
			c-0.5,0-1.1,0-1.6,0l0,0c0,0.9,0,1.7,0,2.6l0,0c0.2,0,0.3,0,0.5,0c0.1,0,0.1,0,0.1-0.1c0-0.3,0-0.7,0-1c0,0,0,0,0-0.1
			c0,0,0,0,0.1,0c0.3,0,0.6,0,0.8,0h0.1c0-0.1,0-0.3,0-0.4c0,0,0-0.1-0.1-0.1c-0.3,0-0.6,0-0.8,0c0,0,0,0-0.1,0
			C282.3,59.3,282.3,59.1,282.4,59L282.4,59z M277.7,61.1c0-0.8,0-1.7,0-2.5c0-0.1,0-0.1-0.1-0.1s-0.2,0-0.3,0h-0.1
			c-0.2,0.1-0.4,0.3-0.7,0.4c0,0,0,0,0,0.1c0.1,0.1,0.1,0.3,0.2,0.4l0,0c0.1-0.1,0.2-0.2,0.3-0.2v0.1c0,0.6,0,1.2,0,1.9
			c0,0,0,0.1,0,0c0.1,0,0.2,0,0.3,0C277.5,61.1,277.6,61.1,277.7,61.1L277.7,61.1z M278.9,60c0,0.1,0,0.3,0,0.4l0,0
			c0.5,0,1.1,0,1.6,0l0,0c0-0.1,0-0.3,0-0.4c0-0.1,0-0.1-0.1-0.1C280,60,279.5,60,278.9,60L278.9,60L278.9,60z"/>
	</g>
</g>
</svg>
